<?xml version="1.0" encoding="UTF-8"?>
<svg xmlns="http://www.w3.org/2000/svg" version="1.1" width="70" height="70" viewBox="0 0 70 70"><rect x="0" y="0" width="70" height="70" fill="#ffffff"/><g transform="scale(2.121)"><g transform="translate(0,0)"><path fill-rule="evenodd" d="M9 0L9 1L8 1L8 2L9 2L9 3L8 3L8 4L10 4L10 7L11 7L11 4L12 4L12 5L13 5L13 6L12 6L12 9L13 9L13 10L11 10L11 11L10 11L10 9L11 9L11 8L6 8L6 9L5 9L5 8L0 8L0 12L1 12L1 13L0 13L0 15L1 15L1 16L2 16L2 14L1 14L1 13L2 13L2 11L3 11L3 12L4 12L4 14L5 14L5 12L6 12L6 13L7 13L7 14L6 14L6 15L7 15L7 14L8 14L8 16L6 16L6 17L5 17L5 15L4 15L4 17L5 17L5 18L4 18L4 20L3 20L3 19L1 19L1 18L2 18L2 17L0 17L0 19L1 19L1 21L0 21L0 25L1 25L1 21L2 21L2 23L3 23L3 21L4 21L4 20L5 20L5 21L8 21L8 22L4 22L4 24L6 24L6 25L8 25L8 27L9 27L9 28L8 28L8 33L11 33L11 32L12 32L12 33L13 33L13 32L12 32L12 31L11 31L11 30L12 30L12 29L16 29L16 30L15 30L15 31L14 31L14 33L16 33L16 32L15 32L15 31L17 31L17 27L18 27L18 26L20 26L20 28L22 28L22 29L18 29L18 30L21 30L21 31L20 31L20 33L21 33L21 32L22 32L22 33L23 33L23 32L24 32L24 33L26 33L26 32L24 32L24 31L22 31L22 29L23 29L23 27L24 27L24 29L28 29L28 30L25 30L25 31L27 31L27 32L28 32L28 33L29 33L29 31L28 31L28 30L29 30L29 29L30 29L30 30L31 30L31 31L30 31L30 32L31 32L31 33L32 33L32 32L31 32L31 31L32 31L32 30L31 30L31 29L32 29L32 28L33 28L33 27L32 27L32 26L33 26L33 24L32 24L32 26L29 26L29 25L30 25L30 24L31 24L31 23L32 23L32 22L33 22L33 21L32 21L32 20L31 20L31 19L32 19L32 18L33 18L33 17L32 17L32 16L31 16L31 15L32 15L32 14L33 14L33 13L31 13L31 15L30 15L30 13L29 13L29 10L28 10L28 8L27 8L27 9L26 9L26 8L24 8L24 7L25 7L25 6L24 6L24 7L23 7L23 6L22 6L22 7L21 7L21 6L20 6L20 9L19 9L19 8L17 8L17 6L18 6L18 7L19 7L19 5L20 5L20 4L21 4L21 5L24 5L24 4L25 4L25 2L23 2L23 1L24 1L24 0L23 0L23 1L22 1L22 0L19 0L19 1L17 1L17 0L16 0L16 1L11 1L11 2L10 2L10 0ZM16 1L16 3L15 3L15 2L12 2L12 4L13 4L13 5L14 5L14 6L13 6L13 9L14 9L14 10L16 10L16 11L17 11L17 12L15 12L15 11L12 11L12 13L11 13L11 12L10 12L10 13L11 13L11 14L9 14L9 10L7 10L7 9L6 9L6 10L5 10L5 11L4 11L4 9L2 9L2 10L1 10L1 11L2 11L2 10L3 10L3 11L4 11L4 12L5 12L5 11L6 11L6 12L8 12L8 14L9 14L9 15L10 15L10 18L13 18L13 19L12 19L12 20L13 20L13 22L12 22L12 21L11 21L11 24L12 24L12 25L13 25L13 26L11 26L11 25L9 25L9 24L10 24L10 22L9 22L9 24L8 24L8 23L6 23L6 24L8 24L8 25L9 25L9 26L10 26L10 28L9 28L9 29L10 29L10 30L9 30L9 32L10 32L10 30L11 30L11 29L10 29L10 28L11 28L11 27L12 27L12 28L14 28L14 27L13 27L13 26L14 26L14 25L13 25L13 24L14 24L14 19L15 19L15 20L18 20L18 21L17 21L17 22L18 22L18 21L19 21L19 20L21 20L21 21L20 21L20 22L19 22L19 23L17 23L17 25L15 25L15 26L16 26L16 27L17 27L17 25L19 25L19 23L20 23L20 22L22 22L22 23L28 23L28 24L30 24L30 23L29 23L29 22L30 22L30 21L31 21L31 20L30 20L30 19L31 19L31 16L30 16L30 15L29 15L29 13L28 13L28 15L29 15L29 17L28 17L28 16L24 16L24 14L23 14L23 13L27 13L27 12L28 12L28 11L27 11L27 10L26 10L26 11L25 11L25 12L24 12L24 10L23 10L23 11L22 11L22 12L18 12L18 11L17 11L17 10L19 10L19 11L21 11L21 10L19 10L19 9L17 9L17 8L16 8L16 6L15 6L15 5L14 5L14 3L15 3L15 4L16 4L16 3L18 3L18 4L17 4L17 5L19 5L19 4L20 4L20 1L19 1L19 2L17 2L17 1ZM10 3L10 4L11 4L11 3ZM21 3L21 4L22 4L22 3ZM23 3L23 4L24 4L24 3ZM8 5L8 7L9 7L9 5ZM14 6L14 7L15 7L15 6ZM22 7L22 8L21 8L21 9L22 9L22 8L23 8L23 7ZM14 8L14 9L15 9L15 8ZM29 8L29 9L30 9L30 8ZM31 8L31 10L33 10L33 9L32 9L32 8ZM16 9L16 10L17 10L17 9ZM6 10L6 11L7 11L7 10ZM30 11L30 12L31 12L31 11ZM13 12L13 13L12 13L12 14L13 14L13 15L12 15L12 17L13 17L13 18L14 18L14 17L15 17L15 16L17 16L17 13L18 13L18 15L19 15L19 16L22 16L22 17L16 17L16 18L15 18L15 19L16 19L16 18L17 18L17 19L18 19L18 20L19 20L19 18L20 18L20 19L21 19L21 20L22 20L22 21L23 21L23 22L28 22L28 21L30 21L30 20L28 20L28 21L23 21L23 20L22 20L22 19L23 19L23 18L24 18L24 20L25 20L25 19L26 19L26 20L27 20L27 19L30 19L30 17L29 17L29 18L28 18L28 17L26 17L26 18L25 18L25 17L23 17L23 15L22 15L22 14L21 14L21 13L18 13L18 12L17 12L17 13L14 13L14 12ZM22 12L22 13L23 13L23 12ZM13 13L13 14L14 14L14 13ZM19 14L19 15L21 15L21 14ZM25 14L25 15L27 15L27 14ZM13 15L13 16L14 16L14 15ZM6 17L6 18L7 18L7 19L5 19L5 20L7 20L7 19L8 19L8 17ZM22 17L22 18L21 18L21 19L22 19L22 18L23 18L23 17ZM2 20L2 21L3 21L3 20ZM8 20L8 21L9 21L9 20ZM15 21L15 22L16 22L16 21ZM12 23L12 24L13 24L13 23ZM15 23L15 24L16 24L16 23ZM20 24L20 26L21 26L21 27L23 27L23 25L24 25L24 24L23 24L23 25L22 25L22 24ZM21 25L21 26L22 26L22 25ZM25 25L25 28L28 28L28 25ZM26 26L26 27L27 27L27 26ZM29 27L29 28L30 28L30 29L31 29L31 28L32 28L32 27L31 27L31 28L30 28L30 27ZM18 31L18 32L17 32L17 33L18 33L18 32L19 32L19 31ZM0 0L0 7L7 7L7 0ZM1 1L1 6L6 6L6 1ZM2 2L2 5L5 5L5 2ZM26 0L26 7L33 7L33 0ZM27 1L27 6L32 6L32 1ZM28 2L28 5L31 5L31 2ZM0 26L0 33L7 33L7 26ZM1 27L1 32L6 32L6 27ZM2 28L2 31L5 31L5 28Z" fill="#000000"/></g></g></svg>
