<?xml version="1.0" encoding="UTF-8"?>
<svg xmlns="http://www.w3.org/2000/svg" version="1.1" width="70" height="70" viewBox="0 0 70 70"><rect x="0" y="0" width="70" height="70" fill="#ffffff"/><g transform="scale(2.121)"><g transform="translate(0,0)"><path fill-rule="evenodd" d="M10 0L10 2L11 2L11 0ZM12 0L12 1L13 1L13 2L12 2L12 4L15 4L15 5L11 5L11 6L10 6L10 4L11 4L11 3L8 3L8 4L9 4L9 5L8 5L8 7L9 7L9 8L6 8L6 9L7 9L7 10L6 10L6 11L5 11L5 8L0 8L0 10L1 10L1 11L3 11L3 10L4 10L4 11L5 11L5 12L6 12L6 13L7 13L7 12L9 12L9 14L10 14L10 15L9 15L9 16L8 16L8 17L7 17L7 16L6 16L6 15L7 15L7 14L5 14L5 16L4 16L4 15L3 15L3 16L0 16L0 17L1 17L1 19L0 19L0 20L2 20L2 18L4 18L4 19L3 19L3 20L4 20L4 21L5 21L5 24L4 24L4 23L3 23L3 21L0 21L0 25L1 25L1 22L2 22L2 23L3 23L3 25L7 25L7 24L6 24L6 23L8 23L8 24L9 24L9 22L10 22L10 23L11 23L11 24L13 24L13 23L14 23L14 21L15 21L15 23L16 23L16 22L17 22L17 19L18 19L18 18L19 18L19 17L18 17L18 16L17 16L17 15L16 15L16 14L18 14L18 15L19 15L19 16L22 16L22 17L23 17L23 18L25 18L25 19L22 19L22 18L21 18L21 17L20 17L20 19L19 19L19 21L18 21L18 23L19 23L19 22L20 22L20 24L22 24L22 25L23 25L23 27L22 27L22 26L21 26L21 25L18 25L18 26L21 26L21 27L20 27L20 29L17 29L17 28L16 28L16 26L17 26L17 24L16 24L16 26L15 26L15 24L14 24L14 26L12 26L12 28L13 28L13 29L11 29L11 30L13 30L13 31L11 31L11 33L13 33L13 31L14 31L14 33L15 33L15 32L16 32L16 33L19 33L19 32L16 32L16 30L17 30L17 31L19 31L19 30L20 30L20 31L21 31L21 32L22 32L22 33L23 33L23 32L24 32L24 33L26 33L26 31L27 31L27 32L28 32L28 33L29 33L29 31L28 31L28 30L29 30L29 29L30 29L30 30L31 30L31 31L30 31L30 32L31 32L31 33L32 33L32 32L31 32L31 31L32 31L32 30L31 30L31 29L32 29L32 28L33 28L33 27L32 27L32 26L33 26L33 24L32 24L32 26L29 26L29 25L30 25L30 24L31 24L31 23L32 23L32 22L33 22L33 21L32 21L32 20L31 20L31 19L32 19L32 18L33 18L33 17L32 17L32 16L31 16L31 15L32 15L32 14L33 14L33 13L31 13L31 15L30 15L30 13L29 13L29 10L28 10L28 8L27 8L27 9L26 9L26 8L25 8L25 3L24 3L24 2L21 2L21 1L22 1L22 0L21 0L21 1L20 1L20 0L19 0L19 1L18 1L18 2L19 2L19 1L20 1L20 2L21 2L21 3L19 3L19 5L20 5L20 4L21 4L21 6L20 6L20 7L21 7L21 8L20 8L20 9L18 9L18 8L19 8L19 6L18 6L18 8L16 8L16 7L17 7L17 4L15 4L15 3L17 3L17 0L16 0L16 1L15 1L15 0L14 0L14 1L13 1L13 0ZM23 0L23 1L24 1L24 0ZM8 1L8 2L9 2L9 1ZM14 1L14 2L13 2L13 3L14 3L14 2L15 2L15 1ZM21 3L21 4L22 4L22 5L23 5L23 9L25 9L25 8L24 8L24 5L23 5L23 4L22 4L22 3ZM9 6L9 7L10 7L10 6ZM11 6L11 7L12 7L12 9L11 9L11 8L10 8L10 9L8 9L8 10L7 10L7 11L6 11L6 12L7 12L7 11L8 11L8 10L9 10L9 12L11 12L11 13L10 13L10 14L13 14L13 13L14 13L14 14L16 14L16 12L17 12L17 13L18 13L18 14L19 14L19 15L21 15L21 14L20 14L20 12L21 12L21 13L22 13L22 12L23 12L23 13L27 13L27 12L28 12L28 11L27 11L27 10L25 10L25 11L26 11L26 12L24 12L24 10L19 10L19 11L20 11L20 12L18 12L18 10L17 10L17 11L16 11L16 12L15 12L15 11L13 11L13 10L14 10L14 8L15 8L15 7L16 7L16 6L15 6L15 7L14 7L14 6L13 6L13 7L12 7L12 6ZM21 6L21 7L22 7L22 6ZM21 8L21 9L22 9L22 8ZM29 8L29 9L30 9L30 8ZM31 8L31 10L33 10L33 9L32 9L32 8ZM2 9L2 10L3 10L3 9ZM10 9L10 11L11 11L11 9ZM12 9L12 10L13 10L13 9ZM12 11L12 13L13 13L13 11ZM21 11L21 12L22 12L22 11ZM30 11L30 12L31 12L31 11ZM0 12L0 13L1 13L1 12ZM3 12L3 13L4 13L4 12ZM14 12L14 13L15 13L15 12ZM28 13L28 15L29 15L29 17L28 17L28 16L26 16L26 15L27 15L27 14L25 14L25 16L24 16L24 14L23 14L23 15L22 15L22 16L23 16L23 17L25 17L25 18L26 18L26 17L28 17L28 18L29 18L29 17L30 17L30 19L27 19L27 20L26 20L26 19L25 19L25 20L23 20L23 21L22 21L22 20L20 20L20 22L21 22L21 23L22 23L22 24L23 24L23 23L24 23L24 22L23 22L23 21L28 21L28 22L25 22L25 24L26 24L26 23L28 23L28 24L30 24L30 23L29 23L29 22L30 22L30 21L31 21L31 20L30 20L30 19L31 19L31 16L30 16L30 15L29 15L29 13ZM10 15L10 17L9 17L9 18L7 18L7 17L6 17L6 16L5 16L5 17L4 17L4 16L3 16L3 17L4 17L4 18L5 18L5 17L6 17L6 18L7 18L7 19L6 19L6 20L5 20L5 19L4 19L4 20L5 20L5 21L6 21L6 22L8 22L8 20L7 20L7 19L9 19L9 18L10 18L10 17L11 17L11 19L10 19L10 20L9 20L9 21L10 21L10 22L11 22L11 23L12 23L12 22L13 22L13 21L12 21L12 20L15 20L15 17L14 17L14 15L12 15L12 16L13 16L13 17L14 17L14 19L13 19L13 18L12 18L12 17L11 17L11 15ZM17 17L17 18L18 18L18 17ZM6 20L6 21L7 21L7 20ZM28 20L28 21L30 21L30 20ZM11 21L11 22L12 22L12 21ZM21 21L21 22L22 22L22 23L23 23L23 22L22 22L22 21ZM8 25L8 27L9 27L9 28L8 28L8 33L9 33L9 32L10 32L10 30L9 30L9 29L10 29L10 27L9 27L9 26L11 26L11 25ZM25 25L25 28L28 28L28 25ZM14 26L14 27L13 27L13 28L14 28L14 27L15 27L15 26ZM26 26L26 27L27 27L27 26ZM18 27L18 28L19 28L19 27ZM23 27L23 29L22 29L22 28L21 28L21 29L22 29L22 30L21 30L21 31L24 31L24 32L25 32L25 31L24 31L24 27ZM29 27L29 28L30 28L30 29L31 29L31 28L30 28L30 27ZM13 29L13 30L14 30L14 29ZM25 29L25 30L28 30L28 29ZM0 0L0 7L7 7L7 0ZM1 1L1 6L6 6L6 1ZM2 2L2 5L5 5L5 2ZM26 0L26 7L33 7L33 0ZM27 1L27 6L32 6L32 1ZM28 2L28 5L31 5L31 2ZM0 26L0 33L7 33L7 26ZM1 27L1 32L6 32L6 27ZM2 28L2 31L5 31L5 28Z" fill="#000000"/></g></g></svg>
