<?xml version="1.0" encoding="UTF-8"?>
<svg xmlns="http://www.w3.org/2000/svg" version="1.1" width="70" height="70" viewBox="0 0 70 70"><rect x="0" y="0" width="70" height="70" fill="#ffffff"/><g transform="scale(2.414)"><g transform="translate(0,0)"><path fill-rule="evenodd" d="M9 0L9 1L8 1L8 2L9 2L9 3L8 3L8 4L10 4L10 7L11 7L11 4L12 4L12 5L13 5L13 4L16 4L16 5L14 5L14 8L13 8L13 6L12 6L12 9L13 9L13 10L11 10L11 11L10 11L10 9L11 9L11 8L6 8L6 9L8 9L8 10L9 10L9 11L7 11L7 10L4 10L4 9L5 9L5 8L0 8L0 11L1 11L1 13L2 13L2 14L3 14L3 13L5 13L5 14L4 14L4 16L2 16L2 17L4 17L4 18L3 18L3 21L5 21L5 20L4 20L4 19L5 19L5 17L4 17L4 16L6 16L6 17L7 17L7 18L6 18L6 19L7 19L7 20L6 20L6 21L7 21L7 20L9 20L9 21L8 21L8 23L9 23L9 24L8 24L8 29L9 29L9 28L11 28L11 29L12 29L12 27L13 27L13 26L11 26L11 24L10 24L10 22L9 22L9 21L12 21L12 22L13 22L13 23L12 23L12 25L13 25L13 24L14 24L14 25L16 25L16 26L15 26L15 27L14 27L14 28L15 28L15 29L18 29L18 28L15 28L15 27L16 27L16 26L17 26L17 25L18 25L18 26L19 26L19 25L18 25L18 24L17 24L17 23L20 23L20 26L22 26L22 27L19 27L19 28L22 28L22 27L23 27L23 28L25 28L25 29L27 29L27 28L28 28L28 26L29 26L29 24L25 24L25 23L27 23L27 22L29 22L29 20L28 20L28 19L27 19L27 16L28 16L28 15L27 15L27 12L28 12L28 11L27 11L27 12L25 12L25 9L26 9L26 8L25 8L25 9L24 9L24 8L23 8L23 9L22 9L22 8L20 8L20 9L19 9L19 5L20 5L20 7L21 7L21 5L20 5L20 4L21 4L21 3L20 3L20 2L19 2L19 1L20 1L20 0L19 0L19 1L17 1L17 0L16 0L16 1L15 1L15 0L14 0L14 2L15 2L15 3L13 3L13 4L12 4L12 2L13 2L13 1L11 1L11 2L10 2L10 0ZM16 2L16 4L17 4L17 7L16 7L16 6L15 6L15 8L14 8L14 10L16 10L16 9L17 9L17 11L16 11L16 12L15 12L15 13L14 13L14 14L12 14L12 13L13 13L13 12L14 12L14 11L12 11L12 13L11 13L11 12L10 12L10 13L9 13L9 14L10 14L10 13L11 13L11 16L10 16L10 15L9 15L9 16L8 16L8 17L11 17L11 18L10 18L10 19L9 19L9 18L7 18L7 19L9 19L9 20L10 20L10 19L11 19L11 18L13 18L13 19L12 19L12 21L14 21L14 22L16 22L16 23L17 23L17 22L18 22L18 21L19 21L19 22L20 22L20 21L19 21L19 19L22 19L22 18L21 18L21 17L20 17L20 16L21 16L21 14L22 14L22 13L23 13L23 15L22 15L22 17L23 17L23 20L24 20L24 19L25 19L25 21L26 21L26 20L27 20L27 19L25 19L25 18L24 18L24 17L26 17L26 16L27 16L27 15L26 15L26 13L25 13L25 12L24 12L24 11L23 11L23 10L24 10L24 9L23 9L23 10L22 10L22 9L20 9L20 10L19 10L19 9L17 9L17 8L18 8L18 5L19 5L19 4L17 4L17 3L19 3L19 2ZM10 3L10 4L11 4L11 3ZM8 5L8 7L9 7L9 5ZM15 8L15 9L16 9L16 8ZM27 8L27 9L28 9L28 10L29 10L29 9L28 9L28 8ZM2 10L2 13L3 13L3 12L5 12L5 11L4 11L4 10ZM18 10L18 12L17 12L17 13L16 13L16 14L15 14L15 15L16 15L16 16L13 16L13 15L12 15L12 17L13 17L13 18L14 18L14 17L16 17L16 18L15 18L15 20L16 20L16 19L18 19L18 18L20 18L20 17L19 17L19 16L20 16L20 15L19 15L19 14L20 14L20 13L22 13L22 12L23 12L23 13L24 13L24 14L25 14L25 13L24 13L24 12L23 12L23 11L21 11L21 10L20 10L20 13L19 13L19 10ZM6 11L6 12L7 12L7 11ZM6 13L6 14L8 14L8 13ZM17 13L17 14L16 14L16 15L17 15L17 16L16 16L16 17L17 17L17 16L18 16L18 14L19 14L19 13ZM28 13L28 14L29 14L29 13ZM6 15L6 16L7 16L7 15ZM23 15L23 16L24 16L24 15ZM0 17L0 21L1 21L1 17ZM28 17L28 18L29 18L29 17ZM17 20L17 21L16 21L16 22L17 22L17 21L18 21L18 20ZM21 21L21 24L24 24L24 21ZM22 22L22 23L23 23L23 22ZM14 23L14 24L15 24L15 23ZM9 24L9 25L10 25L10 24ZM22 25L22 26L23 26L23 27L24 27L24 26L26 26L26 27L25 27L25 28L27 28L27 25L24 25L24 26L23 26L23 25ZM9 26L9 27L11 27L11 26ZM0 0L0 7L7 7L7 0ZM1 1L1 6L6 6L6 1ZM2 2L2 5L5 5L5 2ZM22 0L22 7L29 7L29 0ZM23 1L23 6L28 6L28 1ZM24 2L24 5L27 5L27 2ZM0 22L0 29L7 29L7 22ZM1 23L1 28L6 28L6 23ZM2 24L2 27L5 27L5 24Z" fill="#000000"/></g></g></svg>
