<?xml version="1.0" encoding="UTF-8"?>
<svg xmlns="http://www.w3.org/2000/svg" version="1.1" width="70" height="70" viewBox="0 0 70 70"><rect x="0" y="0" width="70" height="70" fill="#ffffff"/><g transform="scale(2.121)"><g transform="translate(0,0)"><path fill-rule="evenodd" d="M9 0L9 1L8 1L8 2L9 2L9 3L8 3L8 4L10 4L10 7L11 7L11 4L12 4L12 5L13 5L13 6L12 6L12 9L13 9L13 10L11 10L11 11L10 11L10 9L11 9L11 8L6 8L6 9L8 9L8 10L6 10L6 11L5 11L5 8L0 8L0 9L2 9L2 10L3 10L3 9L4 9L4 11L3 11L3 12L1 12L1 10L0 10L0 16L1 16L1 13L3 13L3 14L2 14L2 15L3 15L3 14L4 14L4 13L3 13L3 12L6 12L6 13L7 13L7 12L6 12L6 11L8 11L8 10L9 10L9 13L8 13L8 14L5 14L5 15L4 15L4 16L2 16L2 17L3 17L3 19L2 19L2 18L0 18L0 19L1 19L1 20L3 20L3 22L2 22L2 24L3 24L3 23L4 23L4 24L6 24L6 25L7 25L7 24L9 24L9 25L8 25L8 27L9 27L9 28L8 28L8 33L9 33L9 32L12 32L12 33L19 33L19 30L21 30L21 31L20 31L20 33L21 33L21 32L22 32L22 33L23 33L23 32L24 32L24 33L26 33L26 32L24 32L24 31L22 31L22 29L23 29L23 27L24 27L24 29L28 29L28 30L25 30L25 31L27 31L27 32L28 32L28 33L29 33L29 31L28 31L28 30L29 30L29 29L30 29L30 30L31 30L31 31L30 31L30 32L31 32L31 33L32 33L32 32L31 32L31 31L32 31L32 30L31 30L31 29L32 29L32 28L33 28L33 27L32 27L32 26L33 26L33 24L32 24L32 26L29 26L29 25L30 25L30 24L31 24L31 23L32 23L32 22L33 22L33 21L32 21L32 20L31 20L31 19L32 19L32 18L33 18L33 17L32 17L32 16L31 16L31 15L32 15L32 14L33 14L33 13L31 13L31 15L30 15L30 13L29 13L29 10L28 10L28 8L27 8L27 9L26 9L26 8L24 8L24 7L25 7L25 6L24 6L24 7L23 7L23 6L22 6L22 7L21 7L21 5L24 5L24 4L25 4L25 2L23 2L23 1L24 1L24 0L23 0L23 1L22 1L22 0L20 0L20 2L18 2L18 1L17 1L17 0L16 0L16 1L15 1L15 2L14 2L14 3L13 3L13 4L12 4L12 2L13 2L13 1L11 1L11 2L10 2L10 0ZM16 1L16 3L15 3L15 4L13 4L13 5L16 5L16 6L15 6L15 7L14 7L14 6L13 6L13 8L15 8L15 7L16 7L16 6L17 6L17 10L16 10L16 11L15 11L15 9L14 9L14 10L13 10L13 11L12 11L12 13L11 13L11 12L10 12L10 13L11 13L11 14L10 14L10 15L11 15L11 16L9 16L9 14L8 14L8 16L7 16L7 15L6 15L6 16L5 16L5 17L6 17L6 18L7 18L7 17L10 17L10 18L8 18L8 19L5 19L5 18L4 18L4 19L5 19L5 20L7 20L7 21L6 21L6 22L5 22L5 21L4 21L4 22L5 22L5 23L6 23L6 24L7 24L7 23L8 23L8 22L9 22L9 24L10 24L10 26L9 26L9 27L10 27L10 26L11 26L11 27L12 27L12 28L11 28L11 29L13 29L13 30L14 30L14 31L13 31L13 32L15 32L15 29L17 29L17 30L16 30L16 32L18 32L18 31L17 31L17 30L19 30L19 29L22 29L22 28L20 28L20 26L21 26L21 27L23 27L23 25L24 25L24 24L23 24L23 25L22 25L22 24L20 24L20 26L19 26L19 27L18 27L18 25L19 25L19 23L20 23L20 20L18 20L18 19L16 19L16 20L18 20L18 21L14 21L14 20L15 20L15 19L14 19L14 18L15 18L15 17L14 17L14 18L13 18L13 17L12 17L12 15L13 15L13 16L15 16L15 14L16 14L16 15L17 15L17 16L18 16L18 17L17 17L17 18L19 18L19 19L20 19L20 16L21 16L21 17L22 17L22 18L21 18L21 19L22 19L22 20L21 20L21 22L22 22L22 23L28 23L28 24L30 24L30 23L29 23L29 22L30 22L30 21L31 21L31 20L30 20L30 19L31 19L31 16L30 16L30 15L29 15L29 13L28 13L28 15L29 15L29 17L28 17L28 16L24 16L24 14L23 14L23 13L27 13L27 12L28 12L28 11L27 11L27 10L26 10L26 11L25 11L25 12L24 12L24 10L23 10L23 11L22 11L22 12L21 12L21 11L20 11L20 10L19 10L19 9L20 9L20 8L21 8L21 9L22 9L22 8L23 8L23 7L22 7L22 8L21 8L21 7L20 7L20 5L18 5L18 6L17 6L17 4L19 4L19 3L18 3L18 2L17 2L17 1ZM10 3L10 4L11 4L11 3ZM16 3L16 4L17 4L17 3ZM20 3L20 4L22 4L22 3ZM23 3L23 4L24 4L24 3ZM8 5L8 7L9 7L9 5ZM18 6L18 7L19 7L19 8L20 8L20 7L19 7L19 6ZM29 8L29 9L30 9L30 8ZM31 8L31 10L33 10L33 9L32 9L32 8ZM17 10L17 11L19 11L19 12L20 12L20 11L19 11L19 10ZM30 11L30 12L31 12L31 11ZM14 12L14 14L13 14L13 13L12 13L12 14L13 14L13 15L14 15L14 14L15 14L15 12ZM22 12L22 13L23 13L23 12ZM16 13L16 14L18 14L18 16L19 16L19 14L18 14L18 13ZM20 13L20 15L21 15L21 16L22 16L22 17L23 17L23 18L22 18L22 19L23 19L23 18L24 18L24 20L25 20L25 19L26 19L26 20L27 20L27 19L30 19L30 17L29 17L29 18L28 18L28 17L26 17L26 18L25 18L25 17L23 17L23 15L22 15L22 14L21 14L21 13ZM25 14L25 15L27 15L27 14ZM6 16L6 17L7 17L7 16ZM11 18L11 19L10 19L10 20L9 20L9 19L8 19L8 20L9 20L9 22L11 22L11 21L12 21L12 22L13 22L13 20L12 20L12 19L13 19L13 18ZM10 20L10 21L11 21L11 20ZM22 20L22 21L23 21L23 22L28 22L28 21L30 21L30 20L28 20L28 21L23 21L23 20ZM0 21L0 25L1 25L1 21ZM7 21L7 22L6 22L6 23L7 23L7 22L8 22L8 21ZM18 21L18 22L17 22L17 23L19 23L19 21ZM15 22L15 23L14 23L14 25L13 25L13 23L10 23L10 24L12 24L12 25L11 25L11 26L12 26L12 25L13 25L13 26L14 26L14 25L16 25L16 26L15 26L15 27L16 27L16 28L17 28L17 29L19 29L19 28L17 28L17 27L16 27L16 26L17 26L17 24L16 24L16 22ZM21 25L21 26L22 26L22 25ZM25 25L25 28L28 28L28 25ZM26 26L26 27L27 27L27 26ZM29 27L29 28L30 28L30 29L31 29L31 28L32 28L32 27L31 27L31 28L30 28L30 27ZM9 28L9 30L10 30L10 31L12 31L12 30L10 30L10 28ZM13 28L13 29L15 29L15 28ZM0 0L0 7L7 7L7 0ZM1 1L1 6L6 6L6 1ZM2 2L2 5L5 5L5 2ZM26 0L26 7L33 7L33 0ZM27 1L27 6L32 6L32 1ZM28 2L28 5L31 5L31 2ZM0 26L0 33L7 33L7 26ZM1 27L1 32L6 32L6 27ZM2 28L2 31L5 31L5 28Z" fill="#000000"/></g></g></svg>
