<?xml version="1.0" encoding="UTF-8"?>
<svg xmlns="http://www.w3.org/2000/svg" version="1.1" width="70" height="70" viewBox="0 0 70 70"><rect x="0" y="0" width="70" height="70" fill="#ffffff"/><g transform="scale(2.121)"><g transform="translate(0,0)"><path fill-rule="evenodd" d="M8 0L8 1L10 1L10 0ZM15 0L15 1L14 1L14 2L11 2L11 4L10 4L10 3L9 3L9 2L8 2L8 5L9 5L9 6L8 6L8 7L9 7L9 8L8 8L8 9L7 9L7 8L6 8L6 9L4 9L4 8L0 8L0 11L1 11L1 9L4 9L4 10L5 10L5 11L2 11L2 12L0 12L0 13L2 13L2 15L0 15L0 16L2 16L2 17L3 17L3 18L2 18L2 19L1 19L1 17L0 17L0 19L1 19L1 20L0 20L0 22L1 22L1 20L2 20L2 21L4 21L4 18L5 18L5 22L6 22L6 23L5 23L5 24L2 24L2 23L4 23L4 22L2 22L2 23L1 23L1 24L0 24L0 25L1 25L1 24L2 24L2 25L5 25L5 24L6 24L6 25L8 25L8 26L11 26L11 27L10 27L10 28L12 28L12 29L13 29L13 28L12 28L12 26L13 26L13 27L14 27L14 26L16 26L16 27L18 27L18 25L16 25L16 23L15 23L15 22L17 22L17 20L18 20L18 21L20 21L20 23L19 23L19 22L18 22L18 23L19 23L19 27L21 27L21 28L22 28L22 29L25 29L25 30L24 30L24 32L25 32L25 33L26 33L26 32L28 32L28 33L29 33L29 32L28 32L28 31L27 31L27 30L26 30L26 29L31 29L31 31L32 31L32 32L33 32L33 31L32 31L32 29L33 29L33 27L32 27L32 29L31 29L31 25L30 25L30 26L29 26L29 24L30 24L30 21L31 21L31 24L32 24L32 25L33 25L33 24L32 24L32 23L33 23L33 21L31 21L31 20L30 20L30 21L29 21L29 24L28 24L28 23L27 23L27 21L26 21L26 19L25 19L25 22L24 22L24 21L23 21L23 22L22 22L22 20L21 20L21 21L20 21L20 19L23 19L23 18L25 18L25 17L24 17L24 16L23 16L23 14L22 14L22 15L21 15L21 14L20 14L20 13L19 13L19 15L18 15L18 12L17 12L17 11L16 11L16 15L14 15L14 16L15 16L15 17L12 17L12 16L13 16L13 14L15 14L15 12L14 12L14 11L15 11L15 10L17 10L17 9L18 9L18 8L20 8L20 9L19 9L19 10L18 10L18 11L19 11L19 10L20 10L20 12L21 12L21 11L22 11L22 8L24 8L24 9L23 9L23 12L22 12L22 13L23 13L23 12L24 12L24 9L25 9L25 12L26 12L26 11L28 11L28 13L27 13L27 14L26 14L26 13L24 13L24 15L26 15L26 18L27 18L27 19L28 19L28 20L29 20L29 19L30 19L30 18L31 18L31 19L32 19L32 20L33 20L33 19L32 19L32 18L33 18L33 16L31 16L31 14L32 14L32 13L30 13L30 14L29 14L29 15L28 15L28 13L29 13L29 11L31 11L31 12L32 12L32 11L33 11L33 8L32 8L32 9L31 9L31 8L28 8L28 9L31 9L31 10L27 10L27 9L26 9L26 8L25 8L25 6L24 6L24 7L23 7L23 5L22 5L22 4L24 4L24 5L25 5L25 3L23 3L23 2L25 2L25 1L24 1L24 0L23 0L23 1L22 1L22 0L20 0L20 2L19 2L19 1L18 1L18 3L20 3L20 4L19 4L19 5L17 5L17 0ZM15 1L15 3L16 3L16 1ZM20 2L20 3L21 3L21 4L20 4L20 6L19 6L19 7L20 7L20 6L21 6L21 8L22 8L22 5L21 5L21 4L22 4L22 2ZM12 3L12 5L10 5L10 6L9 6L9 7L10 7L10 8L9 8L9 9L8 9L8 10L7 10L7 9L6 9L6 10L7 10L7 11L5 11L5 12L2 12L2 13L3 13L3 15L2 15L2 16L3 16L3 15L4 15L4 14L7 14L7 15L6 15L6 16L4 16L4 17L6 17L6 18L7 18L7 19L6 19L6 20L7 20L7 21L6 21L6 22L12 22L12 21L11 21L11 20L12 20L12 19L11 19L11 18L12 18L12 17L10 17L10 19L8 19L8 15L9 15L9 16L10 16L10 15L11 15L11 16L12 16L12 14L13 14L13 12L12 12L12 14L9 14L9 12L10 12L10 13L11 13L11 11L14 11L14 10L13 10L13 8L14 8L14 6L15 6L15 7L16 7L16 9L17 9L17 7L18 7L18 6L17 6L17 7L16 7L16 4L15 4L15 5L14 5L14 3ZM12 5L12 7L11 7L11 6L10 6L10 7L11 7L11 8L12 8L12 7L13 7L13 5ZM9 9L9 10L8 10L8 11L7 11L7 12L6 12L6 13L8 13L8 11L9 11L9 10L10 10L10 9ZM31 10L31 11L32 11L32 10ZM17 15L17 16L16 16L16 19L14 19L14 18L13 18L13 20L15 20L15 21L13 21L13 23L11 23L11 25L12 25L12 24L13 24L13 25L14 25L14 24L13 24L13 23L14 23L14 22L15 22L15 21L16 21L16 19L17 19L17 18L18 18L18 17L17 17L17 16L18 16L18 15ZM20 15L20 16L21 16L21 15ZM27 15L27 17L28 17L28 15ZM29 15L29 16L30 16L30 15ZM6 16L6 17L7 17L7 16ZM19 17L19 19L18 19L18 20L19 20L19 19L20 19L20 17ZM21 17L21 18L23 18L23 17ZM31 17L31 18L32 18L32 17ZM28 18L28 19L29 19L29 18ZM7 19L7 20L8 20L8 19ZM10 19L10 20L11 20L11 19ZM21 22L21 23L20 23L20 26L21 26L21 25L22 25L22 27L23 27L23 28L24 28L24 27L23 27L23 23L22 23L22 22ZM25 22L25 23L26 23L26 24L27 24L27 23L26 23L26 22ZM6 23L6 24L10 24L10 23ZM25 25L25 28L28 28L28 25ZM26 26L26 27L27 27L27 26ZM14 28L14 29L16 29L16 28ZM17 28L17 29L18 29L18 30L13 30L13 33L17 33L17 32L18 32L18 33L19 33L19 32L20 32L20 33L22 33L22 32L23 32L23 30L22 30L22 32L21 32L21 31L18 31L18 30L19 30L19 28ZM8 29L8 33L9 33L9 32L10 32L10 33L11 33L11 32L12 32L12 31L11 31L11 29L10 29L10 30L9 30L9 29ZM20 29L20 30L21 30L21 29ZM29 30L29 31L30 31L30 30ZM15 31L15 32L16 32L16 31ZM25 31L25 32L26 32L26 31ZM30 32L30 33L31 33L31 32ZM0 0L0 7L7 7L7 0ZM1 1L1 6L6 6L6 1ZM2 2L2 5L5 5L5 2ZM26 0L26 7L33 7L33 0ZM27 1L27 6L32 6L32 1ZM28 2L28 5L31 5L31 2ZM0 26L0 33L7 33L7 26ZM1 27L1 32L6 32L6 27ZM2 28L2 31L5 31L5 28Z" fill="#000000"/></g></g></svg>
