<?xml version="1.0" encoding="UTF-8"?>
<svg xmlns="http://www.w3.org/2000/svg" version="1.1" width="70" height="70" viewBox="0 0 70 70"><rect x="0" y="0" width="70" height="70" fill="#ffffff"/><g transform="scale(2.121)"><g transform="translate(0,0)"><path fill-rule="evenodd" d="M8 0L8 1L9 1L9 2L8 2L8 5L9 5L9 4L11 4L11 5L10 5L10 10L9 10L9 8L8 8L8 9L7 9L7 8L6 8L6 9L7 9L7 10L6 10L6 11L3 11L3 10L5 10L5 9L4 9L4 8L0 8L0 9L1 9L1 10L0 10L0 12L2 12L2 13L1 13L1 15L2 15L2 17L3 17L3 18L2 18L2 19L3 19L3 20L2 20L2 21L3 21L3 20L4 20L4 19L5 19L5 21L4 21L4 22L3 22L3 23L1 23L1 24L0 24L0 25L1 25L1 24L2 24L2 25L3 25L3 24L4 24L4 23L5 23L5 24L6 24L6 25L7 25L7 24L8 24L8 26L10 26L10 27L9 27L9 28L10 28L10 29L8 29L8 33L9 33L9 31L10 31L10 32L12 32L12 33L15 33L15 31L17 31L17 33L18 33L18 32L19 32L19 33L20 33L20 32L21 32L21 33L22 33L22 32L23 32L23 31L22 31L22 32L21 32L21 29L22 29L22 30L23 30L23 29L25 29L25 30L24 30L24 32L27 32L27 33L28 33L28 32L30 32L30 33L31 33L31 32L30 32L30 31L28 31L28 29L29 29L29 27L30 27L30 29L31 29L31 31L32 31L32 32L33 32L33 31L32 31L32 29L33 29L33 27L30 27L30 26L31 26L31 25L30 25L30 24L29 24L29 23L28 23L28 19L29 19L29 21L30 21L30 22L31 22L31 24L32 24L32 25L33 25L33 24L32 24L32 23L33 23L33 21L31 21L31 20L30 20L30 18L31 18L31 19L32 19L32 20L33 20L33 19L32 19L32 18L33 18L33 16L31 16L31 14L32 14L32 13L30 13L30 14L28 14L28 15L26 15L26 13L25 13L25 15L24 15L24 16L22 16L22 15L21 15L21 14L20 14L20 13L21 13L21 12L20 12L20 11L19 11L19 10L21 10L21 11L22 11L22 14L23 14L23 11L24 11L24 10L26 10L26 11L27 11L27 13L29 13L29 12L28 12L28 11L31 11L31 12L32 12L32 11L33 11L33 8L32 8L32 9L31 9L31 8L28 8L28 9L26 9L26 8L24 8L24 7L25 7L25 6L24 6L24 7L23 7L23 6L22 6L22 8L21 8L21 9L19 9L19 8L20 8L20 7L21 7L21 5L18 5L18 7L17 7L17 6L16 6L16 7L15 7L15 5L17 5L17 2L18 2L18 3L19 3L19 1L21 1L21 2L22 2L22 0L19 0L19 1L17 1L17 0L16 0L16 1L17 1L17 2L13 2L13 0L12 0L12 1L11 1L11 0L10 0L10 1L9 1L9 0ZM23 0L23 3L22 3L22 4L25 4L25 1L24 1L24 0ZM11 2L11 4L12 4L12 3L13 3L13 5L12 5L12 6L11 6L11 8L12 8L12 6L13 6L13 8L14 8L14 5L15 5L15 4L14 4L14 3L13 3L13 2ZM20 3L20 4L21 4L21 3ZM8 6L8 7L9 7L9 6ZM19 6L19 7L18 7L18 8L17 8L17 9L18 9L18 8L19 8L19 7L20 7L20 6ZM15 8L15 11L14 11L14 9L13 9L13 11L11 11L11 13L10 13L10 14L9 14L9 12L8 12L8 11L9 11L9 10L8 10L8 11L6 11L6 12L5 12L5 13L2 13L2 15L4 15L4 16L3 16L3 17L4 17L4 16L5 16L5 17L6 17L6 18L7 18L7 19L6 19L6 20L9 20L9 22L8 22L8 21L5 21L5 23L6 23L6 24L7 24L7 23L8 23L8 24L9 24L9 25L13 25L13 27L12 27L12 26L11 26L11 29L10 29L10 30L11 30L11 31L12 31L12 29L13 29L13 32L14 32L14 31L15 31L15 29L16 29L16 30L18 30L18 31L19 31L19 32L20 32L20 29L21 29L21 28L20 28L20 27L22 27L22 26L24 26L24 25L22 25L22 23L21 23L21 20L22 20L22 22L23 22L23 21L24 21L24 20L26 20L26 21L27 21L27 19L25 19L25 17L26 17L26 15L25 15L25 17L24 17L24 18L22 18L22 19L20 19L20 18L19 18L19 19L20 19L20 20L18 20L18 23L17 23L17 22L15 22L15 24L18 24L18 25L20 25L20 27L19 27L19 29L17 29L17 28L18 28L18 26L17 26L17 27L16 27L16 25L15 25L15 28L14 28L14 24L13 24L13 23L14 23L14 21L13 21L13 20L15 20L15 21L17 21L17 19L18 19L18 17L17 17L17 16L18 16L18 14L19 14L19 13L20 13L20 12L18 12L18 11L17 11L17 10L16 10L16 8ZM22 8L22 9L24 9L24 8ZM2 9L2 10L3 10L3 9ZM11 9L11 10L12 10L12 9ZM28 9L28 10L27 10L27 11L28 11L28 10L31 10L31 11L32 11L32 10L31 10L31 9ZM22 10L22 11L23 11L23 10ZM2 11L2 12L3 12L3 11ZM13 11L13 12L12 12L12 13L11 13L11 16L10 16L10 15L9 15L9 14L8 14L8 16L6 16L6 17L7 17L7 18L8 18L8 17L9 17L9 16L10 16L10 19L11 19L11 16L12 16L12 14L13 14L13 12L14 12L14 15L15 15L15 19L17 19L17 18L16 18L16 15L17 15L17 13L18 13L18 12L17 12L17 11L15 11L15 12L14 12L14 11ZM6 12L6 13L8 13L8 12ZM15 13L15 15L16 15L16 13ZM4 14L4 15L5 15L5 14ZM6 14L6 15L7 15L7 14ZM19 15L19 16L20 16L20 17L21 17L21 15ZM29 15L29 16L30 16L30 15ZM0 16L0 20L1 20L1 16ZM13 16L13 19L12 19L12 20L13 20L13 19L14 19L14 16ZM27 17L27 18L28 18L28 17ZM31 17L31 18L32 18L32 17ZM22 19L22 20L23 20L23 19ZM0 21L0 22L1 22L1 21ZM10 21L10 23L11 23L11 24L12 24L12 23L13 23L13 22L12 22L12 21ZM19 21L19 22L20 22L20 21ZM6 22L6 23L7 23L7 22ZM24 22L24 24L25 24L25 23L26 23L26 22ZM19 23L19 24L21 24L21 23ZM27 23L27 24L28 24L28 23ZM21 25L21 26L22 26L22 25ZM25 25L25 28L28 28L28 25ZM26 26L26 27L27 27L27 26ZM23 27L23 28L24 28L24 27ZM13 28L13 29L14 29L14 28ZM26 29L26 30L27 30L27 29ZM27 31L27 32L28 32L28 31ZM0 0L0 7L7 7L7 0ZM1 1L1 6L6 6L6 1ZM2 2L2 5L5 5L5 2ZM26 0L26 7L33 7L33 0ZM27 1L27 6L32 6L32 1ZM28 2L28 5L31 5L31 2ZM0 26L0 33L7 33L7 26ZM1 27L1 32L6 32L6 27ZM2 28L2 31L5 31L5 28Z" fill="#000000"/></g></g></svg>
